<svg width="1240" height="737" viewBox="0 0 1240 737" fill="none" xmlns="http://www.w3.org/2000/svg">
<path d="M0 44C0 19.6995 19.6995 0 44 0H726C750.301 0 770 19.6995 770 44V133.5C770 157.801 789.699 177.5 814 177.5H1196C1220.3 177.5 1240 197.199 1240 221.5V355V575.75V692.125C1240 716.426 1220.3 736.125 1196 736.125H750.188C750.084 736.125 750 736.209 750 736.312V736.312C750 736.416 749.916 736.5 749.812 736.5H570H390.25C390.112 736.5 390 736.388 390 736.25V736.25C390 736.112 389.888 736 389.75 736H44C19.6995 736 0 716.301 0 692V597.375V398.25V44Z" fill="#303030"/>
</svg>
