<svg width="32" height="32" viewBox="0 0 32 32" fill="none" xmlns="http://www.w3.org/2000/svg">
    <circle cx="16" cy="16" r="16" fill="#fff"/>
    <g clip-path="url(#rxiq1jj7aa)">
        <mask id="422zhnad2b" style="mask-type:luminance" maskUnits="userSpaceOnUse" x="0" y="0" width="32" height="32">
            <path fill="#fff" d="M.8.8h30.4v30.4H.8z"/>
        </mask>
        <g mask="url(#422zhnad2b)">
            <path fill-rule="evenodd" clip-rule="evenodd" d="M.8.8h30.4v30.4H.8V.8z" fill="#F7FCFF"/>
            <path fill-rule="evenodd" clip-rule="evenodd" d="M.8 19.378v2.533h30.4v-2.533H.8zM.8 24.022v2.534h30.4v-2.534H.8zM.8 10.089v2.533h30.4V10.09H.8zM.8 28.667V31.2h30.4v-2.533H.8zM.8 14.733v2.534h30.4v-2.534H.8zM.8.8v2.533h30.4V.8H.8zM.8 5.445v2.533h30.4V5.445H.8z" fill="#E31D1C"/>
            <path fill="#2E42A5" d="M.8.8h19v16.467H.8z"/>
            <path fill-rule="evenodd" clip-rule="evenodd" d="m2.436 4.522-.69.645.233-1.147-.612-.727h.8l.268-.936.315.936h.682l-.536.727.207 1.147-.667-.645zm3.8 0-.69.645.233-1.147-.612-.727h.8l.268-.936.315.936h.682l-.536.727.207 1.147-.667-.645zm3.11.645.69-.645.667.645-.207-1.147.535-.727h-.681l-.315-.936-.268.936h-.8l.612.727-.233 1.147zm4.49-.645-.69.645.233-1.147-.612-.727h.8l.268-.936.315.936h.681l-.535.727.207 1.147-.667-.645zm-12.09 5.712.69-.645.667.645-.207-1.148.536-.726H2.75l-.315-.937-.268.937h-.8l.612.726-.233 1.148zm4.49-.645-.69.645.233-1.148-.612-.726h.8l.268-.937.315.937h.682l-.536.726.207 1.148-.667-.645zm3.11.645.69-.645.667.645-.207-1.148.535-.726h-.681l-.315-.937-.268.937h-.8l.612.726-.233 1.148zm4.49-.645-.69.645.233-1.148-.612-.726h.8l.268-.937.315.937h.681l-.535.726.207 1.148-.667-.645zM1.746 15.3l.69-.644.667.644-.207-1.147.536-.727H2.75l-.315-.936-.268.936h-.8l.612.727-.233 1.147zm4.49-.644-.69.644.233-1.147-.612-.727h.8l.268-.936.315.936h.682l-.536.727.207 1.147-.667-.644zm3.11.644.69-.644.667.644-.207-1.147.535-.727h-.681l-.315-.936-.268.936h-.8l.612.727-.233 1.147zm4.49-.644-.69.644.233-1.147-.612-.727h.8l.268-.936.315.936h.681l-.535.727.207 1.147-.667-.644zm3.11-9.49.69-.644.667.645-.207-1.147.535-.727h-.681l-.315-.936-.268.936h-.8l.612.727-.233 1.147zm.69 4.423-.69.645.233-1.148-.612-.726h.8l.268-.937.315.937h.681l-.535.726.207 1.148-.667-.645zm-.69 5.711.69-.644.667.644-.207-1.147.535-.727h-.681l-.315-.936-.268.936h-.8l.612.727-.233 1.147zM4.336 7.056l-.69.644.233-1.147-.612-.727h.8l.268-.936.315.936h.682l-.536.727.207 1.147-.667-.644zm3.11.644.69-.644.667.644-.207-1.147.536-.727H8.45l-.315-.936-.268.936h-.8l.612.727L7.446 7.7zm4.49-.644-.69.644.233-1.147-.612-.727h.8l.268-.936.315.936h.681l-.535.727.207 1.147-.667-.644zm-8.29 5.71.69-.644.667.645-.207-1.147.536-.727H4.65l-.315-.936-.268.936h-.8l.612.727-.233 1.147zm4.49-.644-.69.645.233-1.147-.612-.727h.8l.268-.936.315.936h.682l-.536.727.207 1.147-.667-.645zm3.11.645.69-.645.667.645-.207-1.147.535-.727h-.681l-.315-.936-.268.936h-.8l.612.727-.233 1.147zm4.49-5.711-.69.644.233-1.147-.612-.727h.8l.268-.936.315.936h.681l-.535.727.207 1.147-.667-.644zm-.69 5.71.69-.644.667.645-.207-1.147.535-.727h-.681l-.315-.936-.268.936h-.8l.612.727-.233 1.147z" fill="#F7FCFF"/>
        </g>
    </g>
    <defs>
        <clipPath id="rxiq1jj7aa">
            <rect x=".8" y=".8" width="30.4" height="30.4" rx="15.2" fill="#fff"/>
        </clipPath>
    </defs>
</svg>
