<svg width="923" height="750" viewBox="0 0 923 750" fill="none" xmlns="http://www.w3.org/2000/svg">
    <path fill-rule="evenodd" clip-rule="evenodd" d="M908.828 108.381c-1.411-40.78 12.87-68.651 29.282-86.149-21.66 9.695-57.409 40.867-55.238 103.629 1.461 42.227 18.118 76.591 36.561 110.6 2.044 3.768 4.11 7.533 6.18 11.305l.006.011.006.011c16.568 30.187 33.356 60.774 40.549 96.739 5.969 29.849 8.514 82.006.509 134.533-7.998 52.484-26.581 105.681-63.163 137.25l-1.96-2.272c35.763-30.861 54.194-83.177 62.157-135.43 7.957-52.209 5.411-104.013-.485-133.493-7.097-35.483-23.651-65.653-40.238-95.883l-.01-.018-.007-.014-.006-.011a2612.442 2612.442 0 0 1-6.175-11.298c-18.466-34.049-35.436-68.947-36.922-111.926-1.454-42.023 13.756-70.34 30.79-87.721-21.384 8.645-59.425 39.775-57.188 104.46 1.461 42.226 18.118 76.591 36.561 110.599 2.047 3.774 4.116 7.544 6.189 11.32l.004.007c16.567 30.187 33.355 60.775 40.548 96.739 5.97 29.849 8.515 82.006.51 134.534-7.999 52.484-26.582 105.681-63.163 137.249l-1.96-2.271c35.762-30.862 54.194-83.177 62.157-135.43 7.956-52.21 5.41-104.014-.486-133.493-7.096-35.484-23.65-65.654-40.237-95.884l-.008-.014-.008-.014-.007-.014-.004-.007-.003-.006-.004-.006-.003-.006-.004-.007-.003-.006-.004-.006-.003-.007-.004-.006-.003-.006-.004-.007-.003-.006-.003-.006-.017-.03c-2.043-3.724-4.087-7.45-6.114-11.187-18.465-34.049-35.435-68.947-36.922-111.926-1.494-43.21 14.629-71.928 32.238-89.168-20.949 7.539-61.349 38.567-59.045 105.171 1.46 42.226 18.117 76.591 36.561 110.599a2440.52 2440.52 0 0 0 6.188 11.32l.004.007c16.568 30.187 33.355 60.775 40.548 96.739 5.97 29.849 8.515 82.006.51 134.534-7.999 52.484-26.581 105.681-63.163 137.249l-1.96-2.271c35.763-30.862 54.194-83.177 62.157-135.43 7.957-52.21 5.411-104.014-.485-133.493-7.097-35.484-23.651-65.654-40.238-95.884l-.008-.014-.007-.014-.008-.014-.003-.007-.004-.006-.003-.006-.004-.007-.003-.006-.004-.006-.003-.007-.004-.006-.003-.006-.004-.006-.003-.007-.004-.006c-2.05-3.737-4.101-7.474-6.133-11.223-18.466-34.049-35.436-68.947-36.922-111.926-2.384-68.909 40.038-100.961 61.838-108.38l.846 2.485c10.279-9.882 20.996-15.88 28.96-18.591l.556 1.633c10.242-9.814 20.906-15.776 28.839-18.476l.257.755C952.168 8.607 962.77 2.687 970.666 0l.967 2.84c-20.714 7.05-62.139 38.017-59.807 105.437 1.461 42.226 18.118 76.591 36.561 110.599 2.044 3.769 4.11 7.534 6.18 11.305l.006.011.006.011c16.568 30.187 33.356 60.775 40.549 96.74 5.972 29.848 8.512 82.006.509 134.533-7.998 52.484-26.581 105.681-63.163 137.249l-1.96-2.271c35.763-30.862 54.194-83.177 62.157-135.43 7.959-52.209 5.411-104.013-.485-133.493-7.097-35.484-23.651-65.654-40.238-95.884l-.01-.018-.007-.014-.006-.01a2612.813 2612.813 0 0 1-6.175-11.299c-18.466-34.049-35.435-68.947-36.922-111.925zm-56.526-42.512c-21.8 7.42-64.222 39.472-61.838 108.381 1.486 42.979 18.456 77.877 36.922 111.926 2.038 3.759 4.095 7.507 6.151 11.254l.003.006.004.007.003.006.004.006.003.006.004.007.003.006.008.014.007.014.008.015c16.587 30.229 33.141 60.4 40.238 95.883 5.896 29.48 8.442 81.284.485 133.493-7.963 52.253-26.394 104.569-62.157 135.43l1.96 2.272c36.582-31.569 55.164-84.766 63.163-137.25 8.005-52.527 5.46-104.685-.51-134.533-7.193-35.965-23.98-66.553-40.548-96.739l-.004-.008a2440.52 2440.52 0 0 1-6.188-11.32c-18.444-34.008-35.101-68.373-36.561-110.599-2.332-67.42 39.093-98.387 59.807-105.437l-.967-2.84zM759.851 188.76c-2.383-68.909 40.039-100.961 61.839-108.38l.966 2.84c-20.713 7.049-62.139 38.017-59.807 105.436 1.461 42.227 18.118 76.592 36.561 110.6 2.045 3.771 4.113 7.538 6.184 11.312l.009.015c16.567 30.187 33.355 60.774 40.548 96.739 5.97 29.849 8.514 82.006.509 134.533-7.998 52.484-26.581 105.681-63.162 137.25l-1.96-2.271c35.762-30.862 54.194-83.178 62.157-135.431 7.956-52.209 5.41-104.013-.486-133.493-7.097-35.483-23.651-65.653-40.237-95.883l-.012-.022c-2.068-3.769-4.136-7.538-6.187-11.319-18.465-34.049-35.435-68.947-36.922-111.926zm30.812-94.775c-21.799 7.42-64.222 39.472-61.838 108.381 1.487 42.979 18.456 77.877 36.922 111.926 2.026 3.737 4.07 7.462 6.114 11.187l.016.029.004.007.003.006.004.006.003.006.004.007.003.006.003.006.004.007.003.006.004.006.003.007.004.006.003.006.008.014.008.015.007.014c16.587 30.23 33.141 60.4 40.238 95.883 5.896 29.48 8.442 81.284.485 133.493-7.963 52.253-26.394 104.569-62.157 135.431l1.96 2.271c36.582-31.569 55.165-84.766 63.163-137.25 8.005-52.527 5.46-104.684-.509-134.533-7.193-35.965-23.981-66.552-40.549-96.739l-.004-.007c-2.072-3.777-4.141-7.547-6.188-11.32-18.443-34.008-35.1-68.373-36.561-110.6-2.332-67.419 39.093-98.387 59.807-105.437l-.967-2.84zm-93.288 120.978c-2.383-68.909 40.039-100.961 61.839-108.381l.967 2.84c-20.714 7.05-62.139 38.018-59.807 105.437 1.46 42.227 18.117 76.592 36.561 110.6a2548.05 2548.05 0 0 0 6.188 11.32l.004.007c16.568 30.187 33.355 60.774 40.548 96.739 5.97 29.849 8.515 82.006.51 134.533-7.999 52.484-26.581 105.681-63.163 137.25l-1.96-2.271c35.763-30.862 54.194-83.178 62.157-135.431 7.957-52.209 5.41-104.013-.485-133.493-7.097-35.483-23.651-65.653-40.238-95.883l-.008-.014-.007-.015-.008-.014-.004-.006-.003-.006-.003-.007-.004-.006-.003-.006-.004-.007-.003-.006-.004-.006-.003-.007-.004-.006-.003-.006-.004-.006-.003-.007-.017-.029c-2.043-3.725-4.087-7.45-6.114-11.187-18.465-34.049-35.435-68.947-36.922-111.926zm29.956-96.922c-21.799 7.419-64.222 39.471-61.838 108.38 1.487 42.979 18.456 77.877 36.922 111.926 2.026 3.737 4.07 7.463 6.114 11.187l.016.03.004.006.003.006.004.007.003.006.004.006.003.007.004.006.003.006.003.007.004.006.003.006.004.007.003.006.008.014.008.014.007.014c16.587 30.23 33.141 60.4 40.238 95.884 5.896 29.48 8.442 81.284.485 133.493-7.963 52.253-26.394 104.568-62.157 135.43l1.96 2.271c36.582-31.568 55.165-84.765 63.163-137.249 8.005-52.527 5.46-104.685-.509-134.533-7.193-35.965-23.981-66.553-40.549-96.74l-.004-.007c-2.072-3.776-4.141-7.546-6.188-11.32-18.443-34.008-35.1-68.373-36.561-110.599-2.332-67.42 39.093-98.387 59.807-105.437l-.967-2.84zm-94.159 118.533c-2.384-68.909 40.038-100.961 61.838-108.38l.967 2.84c-20.714 7.05-62.139 38.017-59.807 105.437 1.46 42.226 18.117 76.591 36.561 110.599a2440.52 2440.52 0 0 0 6.188 11.32l.004.007c16.568 30.187 33.355 60.775 40.548 96.74 5.97 29.848 8.515 82.005.51 134.533-7.999 52.484-26.581 105.681-63.163 137.249l-1.96-2.271c35.763-30.862 54.194-83.177 62.157-135.43 7.957-52.21 5.411-104.014-.485-133.493-7.097-35.484-23.651-65.654-40.238-95.884l-.008-.014-.007-.014-.008-.014-.003-.006-.004-.007-.003-.006-.004-.006-.003-.007-.004-.006-.003-.006-.004-.007-.003-.006-.004-.006-.003-.007-.004-.006-.003-.006-.016-.03c-2.044-3.724-4.088-7.45-6.114-11.187-18.466-34.049-35.436-68.947-36.922-111.926zm29.079-99.743c-21.799 7.419-64.222 39.471-61.838 108.38 1.487 42.979 18.456 77.877 36.922 111.926 2.05 3.781 4.119 7.551 6.186 11.319l.013.022c16.586 30.23 33.14 60.4 40.237 95.884 5.896 29.479 8.442 81.283.485 133.493-7.963 52.253-26.394 104.568-62.157 135.43l1.96 2.271c36.582-31.568 55.165-84.765 63.163-137.249 8.005-52.528 5.46-104.685-.509-134.534-7.193-35.964-23.981-66.552-40.549-96.739l-.008-.015a2535.033 2535.033 0 0 1-6.184-11.312c-18.443-34.008-35.1-68.373-36.561-110.599-2.332-67.42 39.093-98.388 59.807-105.437l-.967-2.84zm-95.016 115.234c-2.384-68.909 40.039-100.961 61.839-108.38l.966 2.84c-20.714 7.049-62.139 38.017-59.807 105.436 1.461 42.227 18.118 76.592 36.561 110.6 2.047 3.773 4.116 7.544 6.188 11.32l.004.007c16.568 30.187 33.356 60.774 40.549 96.739 5.97 29.849 8.514 82.006.509 134.534-7.998 52.484-26.581 105.68-63.162 137.249l-1.96-2.271c35.762-30.862 54.193-83.178 62.157-135.43 7.956-52.21 5.41-104.014-.486-133.493-7.097-35.484-23.651-65.654-40.237-95.884l-.008-.014-.008-.014-.007-.014-.004-.007-.003-.006-.004-.006-.003-.007-.004-.006-.003-.006-.004-.007-.003-.006-.004-.006-.003-.007-.004-.006-.003-.006-.004-.006-.016-.03c-2.044-3.725-4.088-7.45-6.114-11.187-18.466-34.049-35.435-68.947-36.922-111.926zm28.292-103.649c-21.8 7.419-64.222 39.471-61.839 108.38 1.487 42.979 18.457 77.877 36.922 111.926 2.026 3.737 4.071 7.462 6.114 11.187l.016.029.004.007.003.006.004.006.003.007.004.006.003.006.004.007.003.006.004.006.003.007.004.006.003.006.004.007.007.014.008.014.008.014c16.586 30.23 33.14 60.4 40.237 95.884 5.896 29.479 8.442 81.283.486 133.493-7.964 52.252-26.395 104.568-62.157 135.43l1.96 2.271c36.581-31.569 55.164-84.765 63.162-137.249 8.005-52.528 5.461-104.685-.509-134.534-7.193-35.965-23.981-66.552-40.548-96.739l-.005-.007c-2.072-3.777-4.141-7.547-6.188-11.32-18.443-34.008-35.1-68.373-36.561-110.6-2.332-67.419 39.093-98.387 59.807-105.436l-.966-2.84zm-95.648 110.563c-2.383-68.909 40.039-100.962 61.839-108.381l.967 2.84c-20.714 7.05-62.139 38.017-59.807 105.437 1.46 42.227 18.117 76.591 36.561 110.6 2.045 3.771 4.112 7.538 6.184 11.312l.008.015c16.568 30.187 33.355 60.774 40.548 96.739 5.97 29.849 8.515 82.006.51 134.533-7.999 52.484-26.581 105.681-63.163 137.25l-1.96-2.272c35.763-30.861 54.194-83.177 62.157-135.43 7.957-52.209 5.41-104.013-.485-133.493-7.097-35.483-23.651-65.653-40.238-95.883l-.012-.022a2573.664 2573.664 0 0 1-6.186-11.319c-18.466-34.049-35.436-68.947-36.923-111.926zm27.973-109.269c-21.8 7.419-64.222 39.472-61.839 108.381 1.487 42.979 18.457 77.877 36.922 111.926 2.055 3.788 4.127 7.565 6.199 11.341 16.587 30.229 33.141 60.4 40.237 95.883 5.896 29.48 8.442 81.284.486 133.493-7.963 52.253-26.395 104.569-62.157 135.43l1.96 2.272c36.581-31.569 55.164-84.766 63.163-137.25 8.005-52.527 5.46-104.684-.51-134.533-7.193-35.965-23.981-66.553-40.548-96.739l-.001-.001v-.001l-.001-.001v-.001h-.001v-.002l-.001-.001v-.001l-.001-.001-.001-.001v-.001l-.001-.001c-2.072-3.775-4.14-7.543-6.185-11.316-18.444-34.008-35.101-68.373-36.561-110.599-2.333-67.42 39.093-98.387 59.806-105.437l-.966-2.84zm-95.409 103.818c-2.384-68.909 40.039-100.961 61.839-108.381l.966 2.84c-20.714 7.05-62.139 38.018-59.807 105.437 1.461 42.227 18.118 76.592 36.561 110.6 2.048 3.776 4.118 7.548 6.192 11.327 16.568 30.187 33.356 60.774 40.549 96.739 5.97 29.849 8.514 82.006.509 134.533-7.998 52.485-26.581 105.681-63.162 137.25l-1.96-2.271c35.762-30.862 54.193-83.178 62.157-135.43 7.956-52.21 5.41-104.014-.486-133.494-7.097-35.483-23.651-65.653-40.237-95.883-2.072-3.776-4.145-7.553-6.199-11.341-18.466-34.049-35.435-68.947-36.922-111.926zm29.137-117.233c-21.799 7.42-64.222 39.472-61.838 108.381 1.487 42.979 18.456 77.877 36.922 111.926 2.054 3.788 4.127 7.565 6.198 11.341 16.587 30.23 33.141 60.4 40.238 95.883 5.896 29.48 8.442 81.284.485 133.493-7.963 52.253-26.394 104.569-62.157 135.431l1.96 2.271c36.582-31.569 55.165-84.766 63.163-137.25 8.005-52.527 5.46-104.684-.509-134.533-7.193-35.965-23.981-66.552-40.549-96.739v-.001l-.001-.001v-.001l-.001-.001-.001-.001v-.002l-.001-.001-.001-.001c-2.072-3.776-4.141-7.545-6.187-11.318-18.443-34.008-35.1-68.373-36.561-110.6-2.332-67.42 39.093-98.387 59.807-105.437l-.967-2.84zm-98.49 92.385c-2.383-68.909 40.039-100.961 61.839-108.381l.967 2.84c-20.714 7.05-62.139 38.017-59.807 105.437 1.46 42.227 18.117 76.592 36.561 110.6 2.047 3.776 4.118 7.548 6.192 11.327 16.568 30.187 33.355 60.774 40.548 96.739 5.97 29.849 8.515 82.006.51 134.533-7.999 52.484-26.581 105.681-63.163 137.25l-1.96-2.271c35.763-30.862 54.194-83.178 62.157-135.431 7.957-52.209 5.41-104.013-.485-133.493-7.097-35.483-23.651-65.653-40.238-95.883a2583.674 2583.674 0 0 1-6.198-11.341c-18.466-34.049-35.436-68.947-36.923-111.926zm30.438-121.097c-21.8 7.419-64.223 39.471-61.839 108.38 1.487 42.979 18.457 77.877 36.922 111.926 2.055 3.788 4.127 7.565 6.199 11.341 16.586 30.23 33.14 60.4 40.237 95.884 5.896 29.479 8.442 81.283.486 133.493-7.964 52.252-26.395 104.568-62.157 135.43l1.96 2.271c36.581-31.569 55.164-84.765 63.162-137.249 8.005-52.528 5.461-104.685-.509-134.534-7.193-35.965-23.981-66.552-40.549-96.739-2.073-3.779-4.144-7.551-6.192-11.327-18.443-34.008-35.1-68.373-36.561-110.6-2.332-67.419 39.093-98.387 59.807-105.436l-.966-2.84zm-94.184 98.301c-2.383-68.909 40.039-100.961 61.839-108.38l.967 2.84c-20.714 7.05-62.14 38.017-59.807 105.437 1.46 42.226 18.117 76.591 36.561 110.599a2443.59 2443.59 0 0 0 6.192 11.327c16.568 30.187 33.355 60.775 40.548 96.74 5.97 29.848 8.515 82.006.51 134.533-7.999 52.484-26.582 105.681-63.163 137.249l-1.96-2.271c35.763-30.862 54.194-83.177 62.157-135.43 7.956-52.209 5.41-104.013-.486-133.493-7.096-35.484-23.65-65.654-40.237-95.884a2632.449 2632.449 0 0 1-6.199-11.341c-18.465-34.049-35.435-68.947-36.922-111.926zm28.774-115.758c-21.799 7.419-64.222 39.471-61.838 108.38 1.487 42.979 18.456 77.877 36.922 111.926 2.054 3.788 4.127 7.565 6.199 11.341 16.586 30.23 33.14 60.4 40.237 95.884 5.896 29.479 8.442 81.283.485 133.493-7.963 52.252-26.394 104.568-62.157 135.43l1.96 2.271c36.582-31.569 55.165-84.765 63.163-137.249 8.005-52.528 5.46-104.685-.509-134.534-7.193-35.965-23.981-66.552-40.549-96.739a2598.737 2598.737 0 0 1-6.192-11.327c-18.443-34.008-35.1-68.373-36.561-110.6-2.332-67.419 39.093-98.387 59.807-105.436l-.967-2.84zm-95.393 103.7c-2.384-68.909 40.039-100.961 61.839-108.38l.966 2.84c-20.714 7.05-62.139 38.017-59.807 105.437 1.461 42.226 18.118 76.591 36.561 110.599 2.047 3.774 4.116 7.544 6.189 11.321l.001.001v.001l.001.001v.001l.001.001v.001c16.568 30.187 33.356 60.775 40.549 96.739 5.97 29.849 8.514 82.006.509 134.534-7.998 52.484-26.581 105.681-63.162 137.249l-1.96-2.271c35.762-30.862 54.193-83.177 62.157-135.43 7.956-52.21 5.41-104.014-.486-133.493-7.097-35.484-23.651-65.654-40.237-95.884-2.072-3.776-4.144-7.552-6.199-11.341-18.466-34.049-35.435-68.947-36.922-111.926zm28.022-110.42c-21.799 7.42-64.222 39.472-61.838 108.381 1.487 42.979 18.456 77.877 36.922 111.926 2.054 3.788 4.127 7.565 6.198 11.341 16.587 30.23 33.141 60.4 40.238 95.884 5.896 29.479 8.442 81.283.485 133.493-7.963 52.253-26.394 104.568-62.157 135.43l1.96 2.271c36.582-31.568 55.165-84.765 63.163-137.249 8.005-52.528 5.46-104.685-.509-134.534-7.193-35.964-23.981-66.552-40.549-96.739a2598.737 2598.737 0 0 1-6.192-11.327c-18.443-34.008-35.1-68.373-36.561-110.599-2.332-67.42 39.093-98.388 59.807-105.437l-.967-2.84zm-95.713 108.878c-2.384-68.909 40.039-100.962 61.838-108.38l.967 2.84c-20.714 7.049-62.139 38.016-59.807 105.436 1.461 42.226 18.118 76.591 36.561 110.599a2539.66 2539.66 0 0 0 6.189 11.323h.001v.001l.001.001v.001l.001.001v.001c16.568 30.186 33.356 60.774 40.549 96.739 5.969 29.848 8.514 82.006.509 134.533-7.998 52.484-26.581 105.681-63.163 137.25l-1.96-2.272c35.763-30.862 54.194-83.177 62.157-135.43 7.957-52.209 5.411-104.013-.485-133.493-7.097-35.483-23.651-65.654-40.238-95.883-2.071-3.776-4.144-7.553-6.198-11.341-18.466-34.049-35.436-68.947-36.922-111.926zm28.084-105.482c-21.8 7.419-64.223 39.471-61.839 108.38 1.487 42.979 18.456 77.877 36.922 111.926 2.054 3.788 4.127 7.565 6.199 11.341 16.586 30.23 33.14 60.4 40.237 95.884 5.896 29.479 8.442 81.283.485 133.493-7.963 52.253-26.394 104.568-62.157 135.43l1.96 2.271c36.582-31.568 55.165-84.765 63.163-137.249 8.005-52.528 5.46-104.685-.509-134.534-7.193-35.964-23.981-66.552-40.549-96.739a2598.737 2598.737 0 0 1-6.192-11.327c-18.443-34.008-35.1-68.373-36.561-110.599-2.332-67.42 39.093-98.388 59.807-105.437l-.966-2.84zM97.796 200.334c-2.384-68.908 40.039-100.96 61.838-108.38l.967 2.84c-20.714 7.05-62.14 38.017-59.807 105.437 1.461 42.226 18.117 76.591 36.561 110.599 2.047 3.775 4.117 7.546 6.19 11.324l.001.001v.001l.001.001c16.568 30.187 33.355 60.775 40.548 96.74 5.97 29.848 8.515 82.006.51 134.533-7.998 52.484-26.581 105.681-63.163 137.249l-1.96-2.271c35.763-30.862 54.194-83.177 62.157-135.43 7.957-52.209 5.411-104.013-.485-133.493-7.097-35.484-23.651-65.654-40.238-95.884a2473.581 2473.581 0 0 1-6.198-11.341c-18.466-34.049-35.436-68.947-36.922-111.926zM126.54 99.211c-21.799 7.419-64.222 39.472-61.838 108.381 1.487 42.979 18.456 77.876 36.922 111.925 2.054 3.789 4.127 7.566 6.198 11.341 16.587 30.23 33.141 60.401 40.238 95.884 5.896 29.48 8.442 81.284.485 133.493-7.963 52.253-26.394 104.568-62.157 135.43l1.96 2.271c36.582-31.568 55.165-84.765 63.163-137.249 8.005-52.527 5.46-104.685-.509-134.533-7.193-35.965-23.981-66.553-40.549-96.74a2541.7 2541.7 0 0 1-6.192-11.327c-18.443-34.008-35.1-68.373-36.56-110.599-2.333-67.42 39.092-98.387 59.806-105.437l-.967-2.84zM32.104 216.817c-2.383-68.909 40.04-100.961 61.839-108.38l.966 2.84c-20.714 7.049-62.139 38.017-59.807 105.436 1.461 42.227 18.118 76.592 36.561 110.6 2.048 3.776 4.119 7.548 6.193 11.327 16.567 30.187 33.355 60.774 40.548 96.739 5.97 29.849 8.514 82.006.509 134.534-7.998 52.484-26.58 105.68-63.162 137.249l-1.96-2.271c35.762-30.862 54.194-83.178 62.157-135.43 7.956-52.21 5.41-104.014-.486-133.493-7.096-35.484-23.65-65.654-40.237-95.884a2648.467 2648.467 0 0 1-6.199-11.341c-18.465-34.049-35.435-68.947-36.922-111.926zm29.83-97.302C40.136 126.934-2.286 158.987.097 227.896c1.487 42.979 18.457 77.877 36.922 111.926 2.054 3.787 4.126 7.562 6.197 11.337l.002.004c16.587 30.229 33.14 60.4 40.237 95.883 5.896 29.48 8.443 81.284.486 133.493-7.963 52.253-26.395 104.569-62.157 135.43l1.96 2.272c36.582-31.569 55.164-84.766 63.163-137.25 8.005-52.527 5.46-104.685-.51-134.533-7.193-35.965-23.98-66.553-40.548-96.739v-.001c-2.075-3.779-4.145-7.551-6.192-11.327-18.444-34.008-35.1-68.373-36.561-110.599-2.333-67.42 39.093-98.387 59.806-105.437l-.966-2.84z" fill="url(#9g9w58q6aa)" fill-opacity=".72"/>
    <defs>
        <radialGradient id="9g9w58q6aa" cx="0" cy="0" r="1" gradientUnits="userSpaceOnUse" gradientTransform="matrix(0 -345.5 461.377 0 458.738 442.828)">
            <stop stop-color="#E3E3E3"/>
            <stop offset="1" stop-color="#E9E9E9" stop-opacity="0"/>
        </radialGradient>
    </defs>
</svg>
