<svg width="93" height="27" viewBox="0 0 93 27" fill="none" xmlns="http://www.w3.org/2000/svg">
    <path d="M88.912 13.5c4.524-15.333 1.697-15.333-8.482 0-10.18 15.333-13.007 15.333-8.483 0 4.524-15.333 1.697-15.333-8.482 0-10.18 15.333-13.007 15.333-8.483 0 4.524-15.333 1.697-15.333-8.482 0-10.179 15.333-13.006 15.333-8.482 0 4.523-15.333 1.696-15.333-8.483 0s-13.006 15.333-8.482 0c4.524-15.333 1.696-15.333-8.483 0-10.178 15.333-13.006 15.333-8.482 0" stroke="#D03646" stroke-width="4"/>
</svg>
