<svg width="783" height="686" viewBox="0 0 783 686" fill="none" xmlns="http://www.w3.org/2000/svg">
    <path opacity=".5" fill-rule="evenodd" clip-rule="evenodd" d="M608.465 2.385c-11.777 1.018-24.011 2.397-36.702 4.135-48.268 6.626-102.844 18.404-160.05 34.605-139.892 39.627-270.057 98.203-316.53 142.45-27.213 25.909-47.827 53.26-63.03 83.62C18.537 294.38 9.57 323.462 4.743 356.094c-4.047 27.331-5.193 57.842-3.518 93.273 1.518 31.988 5.123 64.852 8.61 96.64l.02.181c7.371 67.181 35.752 118.55 74.067 134.059 22.117 8.952 45.925 5.261 68.808-10.7 35.427-24.722 85.561-52.968 134.057-75.553 41.613-19.372 103.221-44.55 160.313-54.386 41.392-7.128 92.113-29.851 139.156-62.328 43.717-30.186 75.156-62.731 82.049-84.94 4.136-13.363 11.954-30.683 21.873-52.631l.03-.066c22.01-48.748 55.268-122.405 87.991-238.342 10.781-38.206 1.159-66.044-28.608-82.737-29.098-16.321-76.579-21.76-141.125-16.18zM151.988 668.39c-11.615 8.103-23.467 12.986-35.203 14.6-11.211 1.49-22.311.091-32.272-4.066-37.868-15.362-65.96-66.335-73.277-133.041l-.059-.535c-6.91-63.18-14.05-128.441-5.036-189.202 4.805-32.472 13.724-61.395 27.26-88.428 15.106-30.195 35.616-57.381 62.687-83.155C142.413 140.5 272.286 82.058 411.957 42.497c72.167-20.43 140.114-33.81 196.48-38.682 64.282-5.555 111.509-.163 140.38 16.026 29.175 16.377 38.604 43.693 28.022 81.199-32.703 115.883-65.941 189.488-87.942 238.185l-.01.023c-9.927 21.982-17.767 39.343-21.938 52.787-6.792 21.876-37.987 54.09-81.407 84.072-46.865 32.354-97.346 54.994-138.545 62.073-57.25 9.865-118.995 35.095-160.707 54.521-48.569 22.631-98.78 50.918-134.302 75.69zM594.159 28.609c-9.4.873-19.117 2-29.151 3.38-45.446 6.238-97.142 17.556-151.456 33.244-128.602 37.214-248.27 91.971-290.994 133.188-24.95 23.934-43.895 49.163-57.863 77.171-12.54 25.095-20.812 51.907-25.3 81.965-8.513 57.063-1.853 117.009 4.632 174.933 6.778 61.439 32.876 108.705 68.096 123.363 20.292 8.439 42.146 5.407 63.188-8.764 33.346-22.472 78.303-47.162 123.34-67.741 38.333-17.514 95.088-40.357 147.743-49.69 39.206-7.179 86.387-28.72 129.437-59.102 40.206-28.382 69.325-59.569 76-81.391 4.094-13.486 11.45-30.727 20.764-52.55l.043-.1.001-.001c19.828-46.492 49.781-116.723 77.434-220.12 9.406-34.219.49-59.092-26.487-73.936-26.684-14.686-70.234-19.339-129.427-13.85zM174.637 646.008c-10.352 6.972-20.904 11.199-31.359 12.631-10.381 1.426-20.668.093-30.584-4.032-34.834-14.485-60.654-61.385-67.382-122.393l-.024-.216c-6.426-57.8-13.07-117.553-4.605-174.337 4.465-29.899 12.715-56.591 25.18-81.535 13.902-27.839 32.732-52.934 57.547-76.746 42.581-41.047 161.979-95.675 290.398-132.801 66.176-19.137 128.544-31.803 180.329-36.602 58.941-5.467 102.294-.828 128.72 13.708 26.427 14.537 35.151 38.92 25.931 72.482C721.14 219.55 691.19 289.75 671.369 336.202c-9.341 21.88-16.698 39.139-20.839 52.727-6.576 21.516-35.47 52.39-75.409 80.573-42.886 30.263-89.852 51.712-128.857 58.852-52.799 9.359-109.669 32.247-148.084 49.798-45.099 20.607-90.133 45.338-123.543 67.856zM558.164 57.414a612.286 612.286 0 0 1 21.701-2.592c53.851-5.424 93.455-1.535 117.736 11.515 24.186 12.995 32.382 34.918 24.35 65.14-22.764 91.585-48.502 155.889-67.302 202.859l-.032.081c-8.531 21.314-15.256 38.169-19.305 51.637-6.553 21.794-32.71 50.861-69.947 77.838-39.079 28.283-82.716 48.646-119.723 55.872-87.394 16.006-196.041 71.489-247.783 104.912-19.207 12.394-39.119 14.754-57.583 6.832-32.131-13.795-55.932-56.971-62.108-112.67-5.667-50.069-12.084-106.818-4.084-159.836 4.13-27.493 11.725-52.015 23.207-75.009 12.723-25.629 29.962-48.784 52.664-70.731 19.553-19.161 55.955-41.352 105.258-64.183 47.37-21.925 104.28-43.138 160.26-59.718 51.293-15.19 100.124-26.103 142.691-31.947zm-388.37 576.901c9.166-1.257 18.415-4.842 27.488-10.692 51.793-33.472 160.682-89.066 248.26-105.101 36.81-7.192 80.254-27.468 119.177-55.632 37.005-26.779 62.951-55.595 69.409-77.087 4.042-13.51 10.769-30.325 19.282-51.601l.063-.156c18.786-46.937 44.507-111.223 67.281-202.767 7.868-29.619-.151-51.086-23.819-63.808-24.079-12.945-63.459-16.78-117.074-11.387-47.232 4.753-103.979 16.657-164.137 34.472-55.918 16.561-112.766 37.747-160.078 59.649-49.179 22.784-85.457 44.898-104.883 63.928-22.577 21.844-39.721 44.851-52.415 70.339-11.39 22.872-18.927 47.275-23.047 74.604-7.964 52.837-1.57 109.511 4.1 159.488 6.138 55.298 29.668 98.108 61.458 111.768 8.869 3.935 18.845 5.308 28.935 3.983zM565.603 81.009a557.6 557.6 0 0 0-14.378 1.78c-39.637 5.44-85.558 15.945-133.831 30.677-50.612 15.412-101.994 35.035-144.654 55.231-44.598 21.107-77.574 41.65-95.359 59.397-20.438 19.977-35.981 41.019-47.542 64.284-10.379 20.922-17.265 43.191-21.06 68.084-6.917 45.229-2.462 92.301 3.584 144.695 5.58 49.937 27.081 89.01 56.103 101.958 16.653 7.414 34.617 5.74 51.994-4.882 28.169-17.236 65.314-36.23 101.886-52.093 45.56-19.765 87.942-33.69 122.575-40.276 34.783-7.281 74.876-26.467 110.01-52.642 33.681-25.107 57.567-52.88 63.893-74.295 3.857-13.13 10.076-29.857 17.287-49.223l.054-.147c16.718-44.937 39.59-106.417 57.663-186.982 6.667-26.254-.818-45.247-22.185-56.39-21.869-11.415-57.544-14.5-106.04-9.176zM219.948 601.223c-7.325 4.591-15.378 7.595-23.598 8.802-9.301 1.273-18.523-.045-27.357-3.983-28.699-12.805-49.969-51.556-55.516-101.126-6.054-52.289-10.47-99.277-3.59-144.373 3.757-24.743 10.625-46.905 20.942-67.703 11.481-23.131 26.953-44.056 47.288-63.934 17.699-17.657 50.529-38.092 94.993-59.143 42.606-20.169 93.93-39.769 144.503-55.184 54.168-16.512 105.342-27.715 147.997-32.4 48.275-5.298 83.751-2.258 105.425 9.068 20.909 10.908 28.185 29.438 21.68 55.154-18.062 80.543-40.945 142.051-57.656 186.965l-.164.44c-7.148 19.202-13.33 35.811-17.156 48.872-6.231 21.153-29.943 48.654-63.407 73.584-34.977 26.066-74.892 45.169-109.494 52.408-34.708 6.601-77.178 20.553-122.819 40.355-36.626 15.891-73.83 34.916-102.071 52.198zm324.231-493.15a435.18 435.18 0 0 1 7.219-.93c43.144-5.242 74.883-2.939 94.344 6.846 18.59 9.337 25.322 25.371 20.01 47.656-13.524 70.684-33.939 130.278-48.847 173.796v.001l-.001.002-.001.002v.001l-.003.008c-5.915 17.256-11.017 32.158-14.53 44.325-6.202 21.37-27.285 47.159-57.845 70.739-31.204 24.068-67.76 42.081-100.292 49.409-64.53 12.828-149.524 50.397-201.183 79.876-15.56 8.854-31.617 9.866-46.453 2.947-25.905-12.121-45.093-47.087-50.078-91.253-5.274-44.658-9.475-88.172-3.075-129.564 3.45-22.315 9.651-42.313 18.948-61.142 10.336-20.914 24.196-39.837 42.378-57.844 16.02-16.339 45.576-35.23 85.462-54.63 37.968-18.467 83.822-36.509 129.11-50.803 45.288-14.293 88.185-24.393 124.837-29.442zM222.938 585.795c6.788-.978 13.458-3.322 19.617-6.895 51.757-29.517 136.905-67.185 201.563-80.047 32.357-7.289 68.751-25.219 99.817-49.188 30.341-23.435 51.281-48.965 57.411-70.096 3.515-12.193 8.623-27.108 14.539-44.382l.172-.5c14.87-43.453 35.183-102.809 48.647-173.173 5.187-21.774-1.38-37.423-19.516-46.54-19.302-9.677-50.835-11.966-93.78-6.746-38.081 4.635-83.675 15.108-131.848 30.312-45.231 14.279-91.027 32.297-128.96 50.716-39.765 19.339-69.206 38.145-85.128 54.389-18.088 17.917-31.869 36.725-42.158 57.496-9.244 18.713-15.41 38.596-18.841 60.787-6.378 41.25-2.17 84.676 3.08 129.268 4.944 43.831 23.913 78.488 49.54 90.487 8.341 3.965 17.063 5.301 25.845 4.112zm314.229-452.527-.27.031c-33.525 4.602-73.499 14.37-115.611 28.252-84.847 27.978-160.856 66.661-189.118 96.264-15.921 16.033-28.095 32.852-37.209 51.401-8.235 16.732-13.731 34.471-16.84 54.205-5.921 37.511-1.982 77.092 2.555 114.411 4.368 38.351 21.256 69.215 44.006 80.536 13.015 6.468 27.169 6.123 40.914-.972 23.489-12.177 52.823-25.474 80.477-36.494 36.76-14.637 69.531-25.024 97.409-30.862 30.262-7.388 63.275-24.223 90.59-46.19 26.932-21.665 45.812-46.152 51.801-67.189 2.858-10.104 6.516-21.811 10.758-35.36 13.541-43.273 32.068-102.554 40.989-164.564 3.97-18.32-2.021-31.439-17.796-38.976-17.049-8.14-44.858-9.657-82.655-4.493zm-271.95 423.248c-4.956 2.592-10.232 4.308-15.583 5.068-8.335 1.141-16.606-.23-24.453-4.135-22.508-11.18-39.203-41.791-43.532-79.838-4.525-37.257-8.459-76.755-2.573-114.15 3.073-19.61 8.564-37.248 16.735-53.886 9.062-18.442 21.162-35.158 36.999-51.11 28.138-29.468 103.976-68.059 188.674-95.96 42.063-13.859 81.967-23.608 115.439-28.2l.266-.036c37.61-5.138 65.249-3.654 82.136 4.415 15.361 7.342 21.189 20.106 17.313 37.988-8.913 61.93-27.424 121.134-40.944 164.376v.001l-.017.053c-4.243 13.559-7.906 25.27-10.769 35.387-5.923 20.819-24.664 45.093-51.407 66.608-27.191 21.872-60.054 38.63-90.14 45.97-27.922 5.847-60.746 16.244-97.569 30.909-27.684 11.025-57.05 24.345-80.575 36.54zm264.326-398.179c29.136-4 50.815-2.986 64.438 3.097 12.97 5.759 18.194 15.981 15.533 30.377-3.829 54.581-21.555 116.605-34.503 161.894l-.284.996c-1.924 6.741-3.741 13.106-5.342 18.858-5.861 21.046-22.117 43.634-45.744 63.637-23.827 20.17-52.544 35.421-80.872 42.963-19.607 4.368-73.879 18.462-154.6 54.837-11.962 5.358-24.223 5.006-35.447-1.025-19.583-10.517-34.096-37.254-37.878-69.776-3.861-30.384-7.471-65.66-2.056-99.313 5.74-35.54 21.018-65.728 46.765-92.228 12.51-13.539 35.238-29.164 65.715-45.164 29.029-15.235 62.919-29.745 98.004-41.961 36.229-12.607 70.717-21.678 99.732-26.226a289.48 289.48 0 0 1 6.539-.966zM276.435 537.49a41.758 41.758 0 0 0 11.449-3.341c12.913-5.817 39.157-17.284 69.828-28.706 32.201-11.989 60.776-20.797 84.937-26.191 28.173-7.49 56.754-22.678 80.461-42.748 23.469-19.867 39.594-42.28 45.421-63.123 1.52-5.493 3.249-11.549 5.078-17.954l.544-1.904c12.936-45.254 30.654-107.238 34.47-161.717l.004-.053c2.59-13.971-2.479-23.887-15.071-29.481-14.289-6.344-38.668-7.064-70.503-2.074-28.963 4.539-63.394 13.595-99.57 26.184-35.045 12.201-68.885 26.688-97.87 41.905-30.373 15.941-53.027 31.511-65.428 44.929-25.604 26.348-40.809 56.336-46.49 91.689-5.392 33.524-1.759 68.698 2.066 99.043 3.743 32.267 18.101 58.764 37.461 69.162 7.404 4.015 15.277 5.469 23.213 4.38zm291.76-352.56c-10.133-4.004-26.186-4.568-46.896-1.742a250.122 250.122 0 0 0-12.412 2.039c-24.465 4.522-53.373 12.901-83.601 24.211-62.859 23.529-117.16 54.173-138.321 78.085-21.563 22.859-34.481 48.651-39.485 78.846-4.69 28.294-2.027 57.18 1.552 84.18 3.161 26.598 15.273 49.208 31.622 58.954 9.471 5.645 19.873 6.712 30.082 3.077l8.897-3.205c29.869-10.795 79.859-28.851 122.424-39.116 53.461-15.631 99.069-56.695 110.861-99.825 9.398-34.542 31.396-115.416 28.493-163.564 1.406-10.538-3.083-17.937-13.216-21.94zM310.544 511.797a35.844 35.844 0 0 1-7.132 1.755c-7.632 1.048-15.226-.562-22.325-4.684-16.172-9.648-28.169-32.044-31.308-58.444-7.189-54.287-10.186-111.549 37.694-162.302 21.081-23.817 75.223-54.365 137.956-77.839 30.188-11.305 59.038-19.652 83.456-24.177 26.584-4.923 46.931-5.054 58.904-.308 9.833 3.886 14.134 11.01 12.765 21.172l.02.022c2.899 47.988-19.073 128.814-28.465 163.325-11.721 42.811-57.035 83.608-110.186 99.145-42.583 10.266-92.615 28.323-122.485 39.126l-8.894 3.209zM512.673 207.54c12.656-1.735 22.835-1.613 29.761.576 7.442 2.351 11.104 6.989 10.871 13.79 4.426 12.626 4.33 35.155-.344 67.03-3.403 23.217-9.423 51.788-16.524 78.382-11.447 42.654-46.991 77.454-95.103 93.059-16.891 4.5-34.464 9.524-51.459 14.392-21.978 6.295-42.731 12.237-56.587 15.407-11.66 2.63-23.318-1.757-32.835-12.34-9.017-10.023-15.31-24.95-17.284-40.961-5.176-36.552-3.291-56.12-1.043-69.053 4.282-24.815 14.816-46.228 32.21-65.469 17.682-21.158 60.955-47.686 112.855-69.152 33.181-13.717 63.188-22.619 85.482-25.661zM330.695 489.92c.833-.117 1.669-.27 2.503-.453 13.808-3.155 34.555-9.1 56.509-15.391l.039-.011.789-.226c16.754-4.793 34.045-9.74 50.665-14.161 47.819-15.512 83.168-50.083 94.531-92.47 7.085-26.564 13.098-55.103 16.5-78.294 4.668-31.804 4.783-54.262.349-66.743l-.039-.043.006-.071c.246-6.505-3.261-10.943-10.422-13.198-18.963-5.976-62.925 3.624-114.732 25.058-51.807 21.433-94.92 47.848-112.549 68.939-17.297 19.125-27.74 40.425-32.014 65.055-4.274 24.629-1.665 49.677 1.049 68.827 1.955 15.874 8.194 30.675 17.121 40.598 8.686 9.618 19.127 14.037 29.704 12.575l-.009.009zm185.658-259.29c-3.459-.523-7.892-.395-13.125.321-17.925 2.458-45.207 11.864-74.621 26.046-40.253 19.409-72.739 41.941-86.869 60.254-30.633 36.237-29.125 75.692-24.393 106.016 1.51 11.525 6.271 22.878 13.072 31.153 7.267 8.858 16.288 13.597 25.414 13.377 18.739-.543 52.015-7.318 84.783-17.269 21.598-7.867 38.529-18.762 51.755-33.298 12.95-14.24 21.98-31.573 27.602-53.004 6.509-24.898 11.49-53.293 13.329-75.952 1.638-20.101 1.543-45.29-8.151-51.382-.778-3.396-3.726-5.514-8.796-6.262zm-75.88 219.269c-24.651 7.484-49.597 13.161-68.377 15.75l.003.004a156.531 156.531 0 0 1-16.231 1.458c-8.945.217-17.807-4.463-24.958-13.173-6.729-8.197-11.444-19.441-12.941-30.855-4.715-30.179-6.223-69.439 24.233-105.465 14.076-18.237 46.452-40.688 86.61-60.046 37.897-18.269 72.189-28.602 87.367-26.312 4.859.731 7.666 2.732 8.353 5.94l.024.123.107.06c16.523 10.098 6.829 80.181-5.328 126.723-5.595 21.306-14.564 38.541-27.433 52.686-13.129 14.46-29.959 25.291-51.429 33.107zm50.972-197.954c2.258-.308 4.025-.257 5.219.189 1.72-.555 3.506-.644 5.173-.257a8.558 8.558 0 0 1 4.309 2.455c7.431 7.391 7.903 28.314 6.987 44.559-1.325 20.849-4.605 41.732-9.794 62.361-5.726 22.299-12.364 37.538-21.538 49.42-9.8 12.653-23.145 22.21-42.014 30.06-21.595 7.875-45.72 9.715-61.485 4.702-14.128-4.562-24.737-21.743-26.821-35.71-5.259-28.748.663-54.8 17.59-77.428 6.275-9.173 16.16-19.195 29.366-29.805a338.651 338.651 0 0 1 39.47-26.921c22.533-13.202 43.178-22.203 53.538-23.625zm5.104.787-.084-.034c-1.137-.451-2.856-.507-5.054-.21-22.805 3.132-97.644 44.6-121.93 80.105-16.83 22.502-22.712 48.395-17.487 76.971 2.067 13.822 12.541 30.816 26.493 35.319 15.656 4.98 39.648 3.138 61.113-4.686 18.769-7.787 32.035-17.276 41.746-29.852 9.116-11.81 15.723-26.979 21.419-49.192 5.191-20.577 8.473-41.409 9.803-62.207.907-16.139.459-36.899-6.839-44.165a8.134 8.134 0 0 0-4.123-2.331c-1.595-.362-3.301-.267-4.94.275l-.117.007zm-12.167 10.904c-1.773-1.115-3.928-1.543-6.117-1.215-3.025.432-6.404 2.091-10.177 5.021-15.959 12.479-39.361 34.158-57.174 57.583-9.852 12.956-17.092 25.219-21.527 36.438-5.135 13.054-6.492 24.733-4.015 34.731 1.347 5.37 10.445 28.59 27.773 36.077 7.997 3.483 16.633 3.029 25.617-1.303 16.292-7.859 25.653-15.64 32.308-26.853 6.446-10.851 10.156-24.575 15.496-45.879 4.518-18.036 7.317-39.265 7.486-56.808.225-26.161-5.125-34.987-9.67-37.792zm-45.781 166.893c-3.371 1.661-6.927 2.774-10.53 3.296-5.132.691-10.21-.004-14.718-2.013-17.183-7.423-26.23-30.481-27.538-35.799-2.451-9.901-1.107-21.478 4.004-34.412 4.414-11.175 11.633-23.393 21.456-36.313 17.775-23.38 41.135-45.018 57.066-57.479 6.415-4.986 11.728-6.266 15.763-3.752 14.253 8.822 10.229 61.243 1.993 94.117-5.333 21.264-9.026 34.949-15.423 45.728-6.604 11.123-15.881 18.824-32.073 26.627z" fill="url(#0me9vfubda)" fill-opacity=".4"/>
    <defs>
        <linearGradient id="0me9vfubda" x1="755" y1="19" x2="373.335" y2="300.093" gradientUnits="userSpaceOnUse">
            <stop stop-color="#303030"/>
            <stop offset="1" stop-color="#303030" stop-opacity="0"/>
        </linearGradient>
    </defs>
</svg>
