<svg width="120" height="93" viewBox="0 0 120 93" fill="none" xmlns="http://www.w3.org/2000/svg">
    <path d="M106.743 74.017c-3.566-2.697-7.616-4.7-11.8-6.233-8.42-3.019-17.399-4.001-26.26-4.053-4.44.018-8.875.183-13.292.628-4.426.306-8.8 1.408-13.152.694-4.316-.614-8.647-2.216-11.863-5.188-1.593-1.473-2.864-3.318-3.486-5.372-.27-1.034-.508-2.095-.488-3.16.011-1.07.186-2.127.468-3.164.582-2.067 1.593-4.006 2.788-5.819.634-.883 1.225-1.787 1.89-2.646.71-.817 1.38-1.684 2.125-2.464 2.975-3.174 6.495-5.833 10.334-7.904 7.675-4.135 16.696-5.95 25.428-4.78.547.077 1.097.125 1.632.228l1.607.353c1.074.22 2.15.48 3.174.854 2.043.712 4.043 1.791 5.238 3.549 1.211 1.744 1.356 4.003.998 6.09a13.547 13.547 0 0 1-.887 3.084l-.575 1.506c-.193.505-.5.957-.74 1.43-2.029 3.802-5.167 6.963-8.826 9.285-3.66 2.344-7.839 3.85-12.126 4.72-8.591 1.735-17.733.718-25.776-2.907a45.034 45.034 0 0 1-5.802-3.133 37.84 37.84 0 0 1-5.144-4.09c-1.598-1.507-2.976-3.214-4.177-5.027-1.197-1.82-2.184-3.774-2.816-5.853a26.446 26.446 0 0 1-.953-12.803c.705-4.263 2.26-8.37 4.322-12.179m-.782-.438c-2.094 3.877-3.676 8.066-4.395 12.449a27.37 27.37 0 0 0 1.006 13.192c.655 2.142 1.683 4.166 2.92 6.038 1.238 1.87 2.668 3.623 4.302 5.168a38.05 38.05 0 0 0 5.271 4.18 44.241 44.241 0 0 0 5.915 3.186c8.186 3.682 17.518 4.704 26.257 2.924 4.36-.89 8.62-2.432 12.362-4.84 3.743-2.389 6.977-5.64 9.06-9.563.254-.498.555-.963.765-1.48l.59-1.563c.425-1.023.736-2.1.913-3.206.368-2.177.238-4.649-1.122-6.598-1.339-1.95-3.486-3.076-5.594-3.809-1.062-.38-2.16-.642-3.252-.87l-1.64-.347c-.548-.098-1.107-.15-1.663-.232-8.886-1.18-18.035.681-25.818 4.89-3.898 2.107-7.46 4.81-10.48 8.035-.757.805-1.43 1.681-2.157 2.512-.673.875-1.281 1.792-1.924 2.693-1.198 1.842-2.241 3.829-2.85 5.977a12.598 12.598 0 0 0-.485 3.312c-.018 1.13.226 2.245.515 3.33.656 2.163 1.994 4.092 3.653 5.628 3.348 3.074 7.778 4.691 12.184 5.316 2.222.306 4.477.313 6.7.025 2.191-.242 4.379-.568 6.59-.738 4.39-.457 8.812-.618 13.235-.644 8.818.031 17.753 1.014 26.108 3.971 4.156 1.5 8.17 3.465 11.714 6.12" stroke="#D03646" stroke-width="2"/>
</svg>
