<svg width="98" height="98" viewBox="0 0 98 98" fill="none" xmlns="http://www.w3.org/2000/svg">
    <path d="M72.1 29.984c12.756 12.756 12.756 33.442 0 46.199-12.757 12.756-33.443 12.756-46.2 0-12.756-12.757-12.756-33.443 0-46.2 12.757-12.755 33.443-12.755 46.2 0" stroke="#303030" stroke-width="4" stroke-linecap="round" stroke-linejoin="round"/>
    <path d="M51.042 53.075A2.033 2.033 0 0 0 49 51.042a2.048 2.048 0 0 0-2.042 2.045c0 1.127.91 2.038 2.038 2.038a2.05 2.05 0 0 0 2.046-2.046M49 36.75v16.333M40.833 8.167h16.334" stroke="#D03646" stroke-width="4" stroke-linecap="round" stroke-linejoin="round"/>
    <path d="m85.75 24.5-8.167-8.167 4.084 4.084-9.568 9.567" stroke="#303030" stroke-width="4" stroke-linecap="round" stroke-linejoin="round"/>
</svg>
